<svg width="500" height="500" viewBox="0 0 500 500" fill="none" xmlns="http://www.w3.org/2000/svg">
<path d="M0 250C0 111.929 111.929 0 250 0C388.071 0 500 111.929 500 250C500 388.071 388.071 500 250 500C111.929 500 0 388.071 0 250Z" fill="#CFF5E7"/>
<path d="M25 250C25 125.736 125.736 25 250 25C374.264 25 475 125.736 475 250C475 374.264 374.264 475 250 475C125.736 475 25 374.264 25 250Z" fill="#A0E4CB"/>
<path d="M50 250C50 139.543 139.543 50 250 50C360.457 50 450 139.543 450 250C450 360.457 360.457 450 250 450C139.543 450 50 360.457 50 250Z" fill="#CFF5E7"/>
<path d="M75 250C75 153.35 153.35 75 250 75C346.65 75 425 153.35 425 250C425 346.65 346.65 425 250 425C153.35 425 75 346.65 75 250Z" fill="#A0E4CB"/>
<path d="M129.8 319V177H181.4C196.867 177 209.8 180.2 220.2 186.6C230.6 192.867 238.4 201.4 243.6 212.2C248.8 222.867 251.4 234.733 251.4 247.8C251.4 262.2 248.533 274.733 242.8 285.4C237.067 296.067 228.933 304.333 218.4 310.2C208 316.067 195.667 319 181.4 319H129.8ZM223.6 247.8C223.6 238.6 221.933 230.533 218.6 223.6C215.267 216.533 210.467 211.067 204.2 207.2C197.933 203.2 190.333 201.2 181.4 201.2H157.4V294.8H181.4C190.467 294.8 198.133 292.8 204.4 288.8C210.667 284.667 215.4 279.067 218.6 272C221.933 264.8 223.6 256.733 223.6 247.8ZM356.978 214.2C356.045 213.267 354.311 212 351.778 210.4C349.378 208.8 346.378 207.267 342.778 205.8C339.311 204.333 335.511 203.067 331.378 202C327.245 200.8 323.045 200.2 318.778 200.2C311.311 200.2 305.645 201.6 301.778 204.4C298.045 207.2 296.178 211.133 296.178 216.2C296.178 220.067 297.378 223.133 299.778 225.4C302.178 227.667 305.778 229.6 310.578 231.2C315.378 232.8 321.378 234.533 328.578 236.4C337.911 238.667 345.978 241.467 352.778 244.8C359.711 248 364.978 252.267 368.578 257.6C372.311 262.8 374.178 269.733 374.178 278.4C374.178 286 372.778 292.533 369.978 298C367.178 303.333 363.311 307.667 358.378 311C353.445 314.333 347.845 316.8 341.578 318.4C335.311 319.867 328.645 320.6 321.578 320.6C314.511 320.6 307.445 319.867 300.378 318.4C293.311 316.933 286.511 314.867 279.978 312.2C273.445 309.4 267.445 306.067 261.978 302.2L274.178 278.4C275.378 279.6 277.511 281.2 280.578 283.2C283.645 285.067 287.378 287 291.778 289C296.178 290.867 300.978 292.467 306.178 293.8C311.378 295.133 316.645 295.8 321.978 295.8C329.445 295.8 335.111 294.533 338.978 292C342.845 289.467 344.778 285.867 344.778 281.2C344.778 276.933 343.245 273.6 340.178 271.2C337.111 268.8 332.845 266.733 327.378 265C321.911 263.133 315.445 261.133 307.978 259C299.045 256.467 291.578 253.667 285.578 250.6C279.578 247.4 275.111 243.4 272.178 238.6C269.245 233.8 267.778 227.8 267.778 220.6C267.778 210.867 270.045 202.733 274.578 196.2C279.245 189.533 285.511 184.533 293.378 181.2C301.245 177.733 309.978 176 319.578 176C326.245 176 332.511 176.733 338.378 178.2C344.378 179.667 349.978 181.6 355.178 184C360.378 186.4 365.045 189 369.178 191.8L356.978 214.2Z" fill="#0D4C92"/>
</svg>
